<svg width="28" height="28" viewBox="0 0 28 28" fill="none" xmlns="http://www.w3.org/2000/svg">
<path d="M19.4813 13.5001H14.4063V8.46006C14.4063 7.96326 14.0003 7.56006 13.5001 7.56006C12.9998 7.56006 12.5938 7.96326 12.5938 8.46006V13.5001H7.52002C7.01977 13.5001 6.61377 13.9033 6.61377 14.4001C6.61377 14.8969 7.01977 15.3001 7.52002 15.3001H12.5938V20.3401C12.5938 20.8369 12.9998 21.2401 13.5001 21.2401C14.0003 21.2401 14.4063 20.8369 14.4063 20.3401V15.3001H19.4813C19.9816 15.3001 20.3876 14.8969 20.3876 14.4001C20.3876 13.9033 19.9816 13.5001 19.4813 13.5001Z" fill="white"/>
<path d="M13.5 1.5C6.33696 1.5 0.510376 7.2864 0.510376 14.4C0.510376 21.5136 6.33696 27.3 13.5 27.3C20.663 27.3 26.4895 21.5136 26.4895 14.4C26.4895 7.2864 20.663 1.5 13.5 1.5ZM13.5 25.5C7.33625 25.5 2.32288 20.5212 2.32288 14.4C2.32288 8.2788 7.33625 3.3 13.5 3.3C19.6637 3.3 24.677 8.2788 24.677 14.4C24.677 20.5212 19.6637 25.5 13.5 25.5Z" fill="white"/>
</svg>
