<svg width="26" height="26" viewBox="0 0 26 26" fill="none" xmlns="http://www.w3.org/2000/svg">
<g clip-path="url(#clip0)">
<path fill-rule="evenodd" clip-rule="evenodd" d="M13.6731 11.1548H10.2396C9.92726 8.84624 8.6723 6.7689 6.77167 5.41437L3.92334 3.06328C5.99902 1.20468 8.65725 0.121985 11.4443 0C12.7401 3.58688 13.4913 7.34663 13.6731 11.1548ZM21.2546 4.29059C19.4433 6.15066 18.3257 8.5733 18.0879 11.1551H15.4547C15.2711 7.37299 14.5556 3.63536 13.3292 0.0517578C16.4226 0.385507 19.2646 1.90555 21.2546 4.29059ZM23.9995 12.8711C23.8714 14.7851 23.2809 16.6397 22.2784 18.2769C20.901 16.7799 20.031 14.8886 19.7915 12.8711H23.9995ZM23.9994 11.1548C23.8713 9.24085 23.2808 7.38619 22.2784 5.74902C20.9057 7.24731 20.0416 9.13883 19.8086 11.1548H23.9994ZM6.78924 18.6119C8.67555 17.2482 9.91946 15.1738 10.2314 12.8714L13.7165 12.8457C13.5338 16.6538 12.7826 20.4134 11.4877 24.0005C8.63787 23.8787 5.92518 22.7468 3.83764 20.8085L6.78924 18.6119ZM15.3941 12.8714C15.2164 16.6436 14.5097 20.3724 13.2944 23.949C16.3859 23.6092 19.2258 22.0903 21.2198 19.7102C19.4097 17.8493 18.2923 15.4271 18.0531 12.8457L15.3941 12.8714ZM5.722 6.7787L2.74459 4.32465C1.12534 6.26622 0.164367 8.66928 -0.000488281 11.1891H8.49289C8.18777 9.41468 7.19576 7.83077 5.7306 6.7787H5.722ZM-0.000488281 12.871H8.49289H8.50149C8.18372 14.6312 7.18956 16.1982 5.7306 17.2385L2.63272 19.5553C1.09198 17.647 0.173177 15.3147 -0.000488281 12.871Z" fill="black"/>
</g>
<defs>
<clipPath id="clip0">
<rect width="26" height="26" fill="black"/>
</clipPath>
</defs>
</svg>
