<svg width="25" height="20" viewBox="0 0 25 20" fill="none" xmlns="http://www.w3.org/2000/svg">
<path fill-rule="evenodd" clip-rule="evenodd" d="M9.99999 10C12.7575 10 15 7.75626 15 4.99999C15 2.24375 12.7575 0 9.99999 0C7.24249 0 4.99999 2.24375 4.99999 4.99999C4.99999 7.75626 7.24374 10 9.99999 10ZM9.99999 11.25C4.11249 11.25 0 14.3338 0 18.75V20H20V18.75C20 14.3338 15.8887 11.25 9.99999 11.25ZM22.5 20H25V18.75C25 15.5466 22.837 13.0444 19.4015 11.9115C21.3275 13.6334 22.5 15.9999 22.5 18.75V20ZM19.9993 5.00034C19.9993 7.37748 18.3313 9.37336 16.1034 9.87748C16.0019 9.83573 15.8995 9.79511 15.7964 9.75561C16.8603 8.46061 17.4993 6.80396 17.4993 5.00034C17.4993 3.09941 16.7894 1.36175 15.6205 0.0387435C18.0858 0.345593 19.9993 2.45432 19.9993 5.00034Z" fill="white" fill-opacity="0.7"/>
</svg>
