<svg width="19" height="21" viewBox="0 0 19 21" fill="none" xmlns="http://www.w3.org/2000/svg">
<path fill-rule="evenodd" clip-rule="evenodd" d="M16.4346 15.2276L17.9826 17.732C18.0656 17.8667 18.0684 18.0367 17.9883 18.1736C17.9081 18.3105 17.7586 18.3958 17.5965 18.3961L11.7908 18.4089C11.2553 19.3596 10.2255 20.0115 9.03536 20.0141C7.84531 20.0166 6.81499 19.3693 6.27863 18.4211L0.479858 18.4338C0.3177 18.4342 0.169013 18.3495 0.0887529 18.2121C0.00849238 18.0747 0.0102244 17.9065 0.0939383 17.7705L1.63948 15.2593C2.3524 14.1002 2.72922 12.7745 2.72855 11.4251L2.72746 9.2284C2.72608 6.45512 4.62756 4.10527 7.22889 3.34334L7.2281 1.77052C7.22762 0.804021 8.03532 0.016261 9.029 0.0140723C10.0227 0.0118844 10.8312 0.796085 10.8316 1.76258L10.8324 3.33541C13.4345 4.08588 15.3384 6.42735 15.3397 9.20062L15.3408 11.3974C15.3415 12.7467 15.7196 14.0717 16.4346 15.2276Z" fill="white" fill-opacity="0.7"/>
</svg>
